<?xml version="1.0" encoding="UTF-8"?>
<!-- Generated by jsxcad -->
<!DOCTYPE svg PUBLIC "-//W3C//DTD SVG 1.1 Tiny//EN" "http://www.w3.org/Graphics/SVG/1.1/DTD/svg11-tiny.dtd">
<svg viewBox="-250 -250 500 500" width="500" height="500" xmlns="http://www.w3.org/2000/svg"><path d="M-129.61833970899394,-24.079627375710817L-127.99480885482106,118.35147558031638L-85.98487913294959,-68.02443445124754zM-155.46011058915363,76.77999070197656L-129.61833970899394,-24.079627375710817L-154.73405020179305,26.410331061205934zM-85.98487913294959,-68.02443445124754L-73.33502234908681,141.44022135101952L-30.288986431305545,-100.5265881929964zM-30.288986431305545,-100.5265881929964L4.704165527645761e-14,138.35903152293983L30.749318729501177,-117.88362393315856zM-129.61833970899394,-24.079627375710817L-155.46011058915363,76.77999070197656L-127.99480885482106,118.35147558031638zM30.749318729501177,-117.88362393315856L76.09310888135629,107.58825920736568L89.80129650590666,-117.27187403915039zM89.80129650590666,-117.27187403915039L136.6388679295995,56.00490325439583L138.49068004976186,-97.02053950767412zM-85.98487913294959,-68.02443445124754L-127.99480885482106,118.35147558031638L-73.33502234908681,141.44022135101952zM138.49068004976186,-97.02053950767412L168.39940858769518,-3.5186118755203126L167.5477863044508,-57.65336985354706zM-30.288986431305545,-100.5265881929964L-73.33502234908681,141.44022135101952L4.704165527645761e-14,138.35903152293983zM30.749318729501177,-117.88362393315856L4.704165527645761e-14,138.35903152293983L76.09310888135629,107.58825920736568zM138.49068004976186,-97.02053950767412L136.6388679295995,56.00490325439583L168.39940858769518,-3.5186118755203126zM89.80129650590666,-117.27187403915039L76.09310888135629,107.58825920736568L136.6388679295995,56.00490325439583z" style="fill:rgb(83,212,212)"/></svg>
